<svg width="20" height="20" viewBox="0 0 20 20" fill="none" xmlns="http://www.w3.org/2000/svg">
<path d="M19 7.48169H13.5V1.48169C13.5 1.38275 13.4706 1.28605 13.4156 1.20381C13.3606 1.12158 13.2824 1.05751 13.191 1.01972C13.0996 0.981922 12.999 0.972103 12.902 0.991502C12.8049 1.0109 12.7159 1.05864 12.646 1.12869L0.654001 13.1177C0.583955 13.1876 0.536211 13.2766 0.516812 13.3737C0.497414 13.4707 0.507233 13.5713 0.545026 13.6627C0.58282 13.7541 0.646889 13.8323 0.729124 13.8873C0.81136 13.9423 0.908065 13.9717 1.007 13.9717H6.688C6.35449 15.1203 6.48558 16.3539 7.053 17.4067C7.46698 18.2178 8.10649 18.8921 8.89461 19.3483C9.68273 19.8046 10.5859 20.0234 11.4954 19.9785C12.405 19.9336 13.2822 19.6269 14.0216 19.0952C14.7609 18.5636 15.3309 17.8296 15.663 16.9817H19C19.1326 16.9817 19.2598 16.929 19.3536 16.8352C19.4473 16.7415 19.5 16.6143 19.5 16.4817V7.98169C19.5 7.84908 19.4473 7.72191 19.3536 7.62814C19.2598 7.53437 19.1326 7.48169 19 7.48169ZM7.382 12.4817H3.364L12 3.83169V7.48169H10.5C10.3674 7.48169 10.2402 7.53437 10.1464 7.62814C10.0527 7.72191 10 7.84908 10 7.98169V10.6537C8.9425 10.9426 8.01752 11.5885 7.382 12.4817ZM11.25 18.5067C10.6023 18.5067 9.96908 18.3146 9.43051 17.9548C8.89194 17.5949 8.47217 17.0834 8.2243 16.485C7.97642 15.8866 7.91156 15.2281 8.03793 14.5928C8.1643 13.9575 8.47621 13.3739 8.93423 12.9159C9.39224 12.4579 9.97579 12.146 10.6111 12.0196C11.2464 11.8933 11.9049 11.9581 12.5033 12.206C13.1017 12.4539 13.6132 12.8736 13.9731 13.4122C14.3329 13.9508 14.525 14.584 14.525 15.2317C14.525 15.6618 14.4403 16.0876 14.2757 16.485C14.1111 16.8823 13.8699 17.2434 13.5658 17.5475C13.2617 17.8516 12.9006 18.0928 12.5033 18.2574C12.1059 18.422 11.6801 18.5067 11.25 18.5067Z" fill="black"/>
</svg>
