<svg width="10" height="14" viewBox="0 0 10 14" fill="none" xmlns="http://www.w3.org/2000/svg">
<path d="M4.99458 4.90918e-08C3.66994 4.90918e-08 2.39962 0.52597 1.46297 1.46263C0.526312 2.39928 0 3.6696 0 4.99423C0 8.98958 4.99458 13.9844 4.99458 13.9844C4.99458 13.9844 9.98915 8.98958 9.98915 4.99423C9.98924 4.33832 9.86012 3.68968 9.60915 3.08367C9.35819 2.47766 8.99033 1.92643 8.52652 1.46263C8.06272 0.998823 7.51183 0.630621 6.90582 0.379655C6.29982 0.128689 5.65049 -9.17967e-05 4.99458 4.90918e-08ZM4.99458 6.9922C4.59953 6.9922 4.21346 6.87569 3.88497 6.65625C3.55649 6.4368 3.30046 6.12395 3.14922 5.75901C2.99798 5.39406 2.95822 4.99249 3.03519 4.60502C3.11216 4.21755 3.30221 3.86157 3.58145 3.58214C3.86069 3.3027 4.21658 3.11311 4.60399 3.03587C4.99141 2.95863 5.39293 2.99687 5.75798 3.14786C6.12303 3.29884 6.43521 3.55562 6.65488 3.88395C6.87456 4.21228 6.99192 4.59783 6.9922 4.99287C6.99229 5.2553 6.94061 5.51515 6.84027 5.75764C6.73993 6.00013 6.59286 6.2207 6.40735 6.40633C6.22185 6.59196 6.00177 6.73873 5.75935 6.83925C5.51693 6.93976 5.257 6.99211 4.99458 6.9922Z" fill="black"/>
</svg>
