<svg width="21" height="21" viewBox="0 0 21 21" fill="none" xmlns="http://www.w3.org/2000/svg">
<path d="M20.3634 17.9736L15.4012 13.0113C16.5997 11.3388 17.1253 9.27652 16.8734 7.2343C16.6216 5.19208 15.6107 3.31932 14.0417 1.98808C12.4726 0.656837 10.4602 -0.0354814 8.40425 0.0486624C6.34828 0.132806 4.39919 0.987254 2.94418 2.44226C1.48917 3.89727 0.634725 5.84636 0.550581 7.90233C0.466437 9.95831 1.15876 11.9707 2.49 13.5397C3.82124 15.1088 5.694 16.1196 7.73621 16.3715C9.77843 16.6234 11.8407 16.0978 13.5132 14.8992L18.4755 19.8615C18.733 20.072 19.0596 20.1794 19.3918 20.1628C19.724 20.1461 20.0382 20.0067 20.2734 19.7715C20.5086 19.5363 20.6481 19.2221 20.6647 18.8899C20.6813 18.5577 20.574 18.2311 20.3634 17.9736ZM3.01375 8.258C3.01375 7.12076 3.35098 6.00905 3.9828 5.06347C4.61462 4.11789 5.51265 3.38089 6.56332 2.94569C7.614 2.51049 8.77013 2.39662 9.88552 2.61848C11.0009 2.84035 12.0255 3.38798 12.8296 4.19213C13.6338 4.99629 14.1814 6.02084 14.4033 7.13623C14.6251 8.25162 14.5113 9.40775 14.0761 10.4584C13.6409 11.5091 12.9039 12.4071 11.9583 13.0389C11.0127 13.6708 9.90099 14.008 8.76375 14.008C7.23875 14.008 5.77622 13.4022 4.69789 12.3239C3.61955 11.2455 3.01375 9.78299 3.01375 8.258Z" fill="#696969"/>
</svg>
