<svg width="16" height="16" viewBox="0 0 16 16" fill="none" xmlns="http://www.w3.org/2000/svg">
<path d="M3.043 4.43869L4.836 6.23169L6.25 4.81669L4.457 3.02469L5 2.48169L2 0.981692L0.999998 1.98169L2.5 4.98169L3.043 4.43869ZM14.558 12.4197L11.518 9.38169L9.4 11.4997L12.444 14.5427C12.5819 14.6882 12.7477 14.8045 12.9313 14.8849C13.115 14.9652 13.313 15.008 13.5134 15.0105C13.7139 15.0131 13.9129 14.9754 14.0985 14.8997C14.2842 14.8241 14.4528 14.712 14.5944 14.57C14.736 14.4281 14.8477 14.2592 14.9229 14.0734C14.9982 13.8875 15.0354 13.6885 15.0323 13.488C15.0293 13.2875 14.9861 13.0897 14.9053 12.9062C14.8246 12.7227 14.7078 12.5573 14.562 12.4197H14.558ZM12.621 5.48169H10.5V3.36069L12.674 1.18769C12.0504 0.962364 11.3755 0.919184 10.7283 1.0632C10.0811 1.20721 9.48821 1.53247 9.01898 2.00096C8.54976 2.46944 8.22358 3.06181 8.07855 3.70881C7.93352 4.35582 7.97565 5.03074 8.2 5.65469L1.439 12.4217C1.29358 12.5597 1.1773 12.7255 1.09704 12.9092C1.01678 13.0929 0.974168 13.2909 0.971716 13.4913C0.969264 13.6918 1.00702 13.8907 1.08277 14.0764C1.15851 14.262 1.2707 14.4306 1.4127 14.5721C1.5547 14.7136 1.72363 14.8253 1.90951 14.9004C2.09538 14.9755 2.29444 15.0126 2.4949 15.0095C2.69536 15.0064 2.89317 14.9631 3.07662 14.8823C3.26008 14.8014 3.42546 14.6846 3.563 14.5387L10.327 7.78169C10.9511 8.00707 11.6266 8.05006 12.2743 7.90561C12.9219 7.76116 13.5151 7.43525 13.9843 6.96602C14.4536 6.49679 14.7795 5.90363 14.9239 5.25595C15.0684 4.60827 15.0254 3.93284 14.8 3.30869L12.621 5.48169Z" fill="black"/>
</svg>
